<?xml version="1.0" standalone="no"?><!DOCTYPE svg PUBLIC "-//W3C//DTD SVG 1.1//EN" "http://www.w3.org/Graphics/SVG/1.1/DTD/svg11.dtd"><svg t="1532015361272" class="icon" style="" viewBox="0 0 1024 1024" version="1.1" xmlns="http://www.w3.org/2000/svg" p-id="4067" xmlns:xlink="http://www.w3.org/1999/xlink" width="200" height="200"><defs><style type="text/css"></style></defs><path d="M64.004096 64.064512l0 256.016384 384.023552 0L448.027648 64.064512 64.004096 64.064512zM384.024576 256.075776 128.007168 256.075776 128.007168 128.068608l256.017408 0L384.024576 256.075776zM64.003072 384.083968l0 192.012288 384.023552 0L448.026624 384.083968 64.003072 384.083968zM384.024576 512.093184 128.007168 512.093184l0-64.004096 256.017408 0L384.024576 512.093184zM512.032768 64.064512l0 512.031744 448.027648 0L960.060416 64.064512 512.032768 64.064512zM896.05632 512.09216l-320.02048 0L576.03584 128.068608l320.02048 0L896.05632 512.09216zM64.003072 640.100352l0 320.02048 896.055296 0 0-320.02048L64.003072 640.100352zM896.054272 896.116736 128.007168 896.116736 128.007168 704.104448 896.054272 704.104448 896.054272 896.116736z" p-id="4068"></path></svg>