<?xml version="1.0" standalone="no"?><!DOCTYPE svg PUBLIC "-//W3C//DTD SVG 1.1//EN" "http://www.w3.org/Graphics/SVG/1.1/DTD/svg11.dtd"><svg t="1531637793058" class="icon" style="" viewBox="0 0 1024 1024" version="1.1" xmlns="http://www.w3.org/2000/svg" p-id="4769" xmlns:xlink="http://www.w3.org/1999/xlink" width="64" height="64"><defs><style type="text/css"></style></defs><path d="M795.648 237.056h-552.96c-14.336 0-25.6-11.264-25.6-25.6V70.144c0-14.336 11.264-25.6 25.6-25.6h552.96c14.336 0 25.6 11.264 25.6 25.6v141.312c0 14.336-11.264 25.6-25.6 25.6z m-527.36-51.2h501.76V95.744h-501.76v90.112z" p-id="4770"></path><path d="M988.16 600.576H50.176c-14.336 0-25.6-11.264-25.6-25.6V212.992c0-14.336 11.264-25.6 25.6-25.6H988.16c14.336 0 25.6 11.264 25.6 25.6v361.984c0 14.336-11.264 25.6-25.6 25.6z m-912.384-51.2H962.56V238.592H75.776v310.784z" p-id="4771"></path><path d="M808.96 999.424H229.376c-14.336 0-25.6-11.264-25.6-25.6v-394.752c0-14.336 11.264-25.6 25.6-25.6H808.96c14.336 0 25.6 11.264 25.6 25.6v394.752c0 14.336-11.264 25.6-25.6 25.6z m-553.984-51.2H783.36v-343.552H254.976v343.552z" p-id="4772"></path><path d="M659.968 741.888H377.856c-14.336 0-25.6-11.264-25.6-25.6s11.264-25.6 25.6-25.6h282.112c14.336 0 25.6 11.264 25.6 25.6s-11.264 25.6-25.6 25.6zM659.968 852.48H377.856c-14.336 0-25.6-11.264-25.6-25.6s11.264-25.6 25.6-25.6h282.112c14.336 0 25.6 11.264 25.6 25.6s-11.264 25.6-25.6 25.6zM738.304 358.4h-121.856c-14.336 0-25.6-11.264-25.6-25.6s11.264-25.6 25.6-25.6h121.856c14.336 0 25.6 11.264 25.6 25.6s-11.264 25.6-25.6 25.6z" p-id="4773"></path><path d="M866.304 334.848m-31.744 0a31.744 31.744 0 1 0 63.488 0 31.744 31.744 0 1 0-63.488 0Z" p-id="4774"></path></svg>