<?xml version="1.0" standalone="no"?><!DOCTYPE svg PUBLIC "-//W3C//DTD SVG 1.1//EN" "http://www.w3.org/Graphics/SVG/1.1/DTD/svg11.dtd"><svg t="1531637760134" class="icon" style="" viewBox="0 0 1024 1024" version="1.1" xmlns="http://www.w3.org/2000/svg" p-id="3369" xmlns:xlink="http://www.w3.org/1999/xlink" width="64" height="64"><defs><style type="text/css"></style></defs><path d="M334.370133 957.098667H112.298667V1024h800.221866v-66.901333h-578.218666zM956.416 0.6144H67.7888a66.7648 66.7648 0 0 0-66.7648 66.833067v622.7968c0 36.932267 29.9008 66.901333 66.7648 66.901333h888.695467c36.864 0 66.7648-29.969067 66.7648-66.901333V67.447467a66.7648 66.7648 0 0 0-66.7648-66.901334z m8.738133 673.245867c0 12.288-9.966933 22.869333-22.801066 22.869333H81.237333a22.869333 22.869333 0 0 1-22.869333-22.869333V83.831467c0-12.288 9.966933-22.869333 22.869333-22.869334h861.115734c12.288 0 22.801067 9.966933 22.801066 22.869334v590.0288z m-258.8672 227.5328v-63.351467H329.659733v63.351467h376.695467z" p-id="3370"></path><path d="M741.444267 523.6736L541.149867 176.5376a33.5872 33.5872 0 0 0-58.5728 0L282.2144 523.605333a34.133333 34.133333 0 0 0 29.2864 51.063467h400.725333a33.723733 33.723733 0 0 0 29.218134-51.063467z m-229.5808-18.158933a28.740267 28.740267 0 1 1 0.068266-57.5488 28.740267 28.740267 0 0 1-0.068266 57.5488z m29.832533-109.090134a30.037333 30.037333 0 0 1-29.832533 29.9008 30.037333 30.037333 0 0 1-29.9008-29.9008V275.114667a30.037333 30.037333 0 0 1 29.9008-29.9008 30.037333 30.037333 0 0 1 29.832533 29.9008v121.378133z" p-id="3371"></path></svg>