<?xml version="1.0" standalone="no"?><!DOCTYPE svg PUBLIC "-//W3C//DTD SVG 1.1//EN" "http://www.w3.org/Graphics/SVG/1.1/DTD/svg11.dtd"><svg t="1531637707706" class="icon" style="" viewBox="0 0 1024 1024" version="1.1" xmlns="http://www.w3.org/2000/svg" p-id="1927" xmlns:xlink="http://www.w3.org/1999/xlink" width="64" height="64"><defs><style type="text/css"></style></defs><path d="M787.2 665.6c51.2 0 89.6 19.2 121.6 51.2s51.2 76.8 51.2 121.6c0 96-76.8 172.8-172.8 172.8-96 0-172.8-76.8-172.8-172.8 0-19.2 6.4-38.4 6.4-57.6l-185.6-108.8-6.4 6.4c-51.2 44.8-108.8 70.4-172.8 70.4C128 748.8 19.2 640 19.2 512S128 275.2 256 275.2c64 0 128 25.6 166.4 70.4l6.4 6.4 185.6-108.8c0-19.2-6.4-38.4-6.4-57.6 0-96 76.8-172.8 172.8-172.8 96 0 172.8 76.8 172.8 172.8 0 96-76.8 172.8-172.8 172.8-51.2 0-89.6-19.2-121.6-51.2L473.6 416c12.8 32 19.2 64 19.2 96s-6.4 64-19.2 96l185.6 108.8c32-32 76.8-51.2 128-51.2z m64 102.4c-19.2-19.2-44.8-25.6-70.4-25.6-25.6 0-51.2 12.8-70.4 25.6-19.2 19.2-25.6 44.8-25.6 70.4 0 51.2 44.8 96 96 96s96-44.8 96-96c6.4-25.6-6.4-51.2-25.6-70.4zM371.2 396.8c-32-25.6-70.4-44.8-115.2-44.8-89.6 0-160 70.4-160 160s70.4 160 160 160c44.8 0 83.2-19.2 108.8-44.8 38.4-32 51.2-70.4 51.2-115.2s-12.8-83.2-44.8-115.2z m416-307.2c-51.2 0-96 44.8-96 96 0 19.2 6.4 38.4 12.8 51.2 6.4 6.4 6.4 12.8 12.8 12.8 19.2 19.2 44.8 25.6 70.4 25.6 51.2 0 96-44.8 96-96 0-44.8-44.8-89.6-96-89.6z" fill="" p-id="1928"></path></svg>