<?xml version="1.0" standalone="no"?><!DOCTYPE svg PUBLIC "-//W3C//DTD SVG 1.1//EN" "http://www.w3.org/Graphics/SVG/1.1/DTD/svg11.dtd"><svg t="1531637775757" class="icon" style="" viewBox="0 0 1024 1024" version="1.1" xmlns="http://www.w3.org/2000/svg" p-id="3839" xmlns:xlink="http://www.w3.org/1999/xlink" width="64" height="64"><defs><style type="text/css"></style></defs><path d="M675.288423 342.704602c-80.981602 0-161.963204-0.455384-242.934573 0.3377-18.650277 0.1842-26.703922-5.566941-25.685704-24.703303 0.997751-18.701444 1.181952-37.556388-0.040933-56.232249-1.217768-18.614461 7.009844-22.697567 24.104652-22.6464 163.66194 0.511667 327.328996 0.593534 490.985819-0.071633 19.561045-0.081867 24.375836 6.856343 24.508869 25.266137 0.547484 78.054864 1.059152 78.049748-76.586379 78.049748C804.852846 342.704602 740.070634 342.704602 675.288423 342.704602z" p-id="3840"></path><path d="M676.316874 777.708889c80.127117 0 160.274701 1.023335 240.366002-0.608884 24.759586-0.506551 31.472663 8.125279 29.46181 30.776795-1.504302 16.915725-0.844251 34.0924-0.148384 51.110458 0.598651 14.643921-3.868206 21.894249-20.093179 21.858432-166.220277-0.342817-332.440554-0.368401-498.66083 0.035817-16.194274 0.040933-20.804397-7.040544-20.456463-21.541198 0.475851-19.591745 0.828901-39.244891-0.112567-58.800819-0.869835-17.979993 6.590276-23.316684 24.145585-23.158067C512.649818 778.12334 594.485904 777.708889 676.316874 777.708889z" p-id="3841"></path><path d="M674.449288 611.217429c-80.101534 0.005117-160.208185-0.603768-240.299485 0.409334-21.157448 0.266067-29.420876-6.375376-27.558407-27.660741 1.407085-16.066357 1.396852-32.455064 0.010233-48.526538-1.990386-23.0148 8.115045-28.801759 29.850677-28.704542 160.197951 0.731684 320.406136 0.762384 480.604087-0.020467 22.579883-0.10745 30.971229 7.332194 29.062709 29.564143-1.381502 16.071474-1.325219 32.444831-0.005117 48.526538 1.647569 20.128996-6.221876 26.918823-26.253655 26.724389C838.065178 610.756928 756.254674 611.212312 674.449288 611.217429z" p-id="3842"></path><path d="M198.644641 899.700635c-30.868895-37.694539-62.285275-76.059361-94.029121-114.813052 21.387698-27.10814 21.520732-27.30769 51.663059-6.897277 37.065188 25.097287 29.87626 24.247919 61.845241-6.155359 28.254275-26.867656 58.253335-52.04681 88.804997-76.304962 26.627172-21.142098 27.440724-20.113646 46.111468 2.855104C301.141858 766.053105 250.236067 832.426603 198.644641 899.700635z" p-id="3843"></path><path d="M198.583241 361.191146c-30.807495-37.720122-61.860591-75.742128-93.650487-114.669785 6.87681-5.843242 16.224974-13.779204 27.15419-23.055734 11.205516 7.368011 25.005187 15.590506 37.848039 25.10752 14.147604 10.484065 24.160935 8.867196 37.423355-3.714705 39.290941-37.274971 80.352251-72.682356 123.056014-110.909029 11.717184 12.986119 19.453595 21.561665 22.866417 25.348004C300.860441 227.70735 249.606716 294.602748 198.583241 361.191146z" p-id="3844"></path><path d="M311.98409 585.12239c-13.87642 12.607485-23.731135 21.561665-35.479019 32.235047-13.282886-14.060621-27.164423-27.855174-39.976575-42.580962-11.256683-12.929836-21.049998-11.287383-31.748963 0.235367-13.262419 14.285754-26.883006 28.244041-40.73896 42.754929-10.642682-11.783701-19.448478-21.530965-30.597711-33.8775 12.413052-11.870684 25.931305-25.757338 40.493359-38.441573 13.758737-11.983251 12.561435-22.221716-0.409334-33.596083-14.029921-12.300485-27.49189-25.255904-42.023245-38.687173 12.566552-10.637566 22.656633-19.177295 37.044721-31.354979 7.859212 9.133263 19.832229 22.170549 30.787028 36.011153 15.073722 19.059611 28.448708 17.243192 43.041463-0.772618 10.673382-13.175436 22.93805-25.06147 33.222565-36.144186 11.425533 11.297617 20.927197 20.696947 33.166282 32.802998-14.014571 13.165203-27.885874 26.739739-42.366062 39.633758-12.085584 10.765482-13.298236 20.364363-0.143267 31.324279C281.166362 557.083016 295.365133 570.350552 311.98409 585.12239z" p-id="3845"></path></svg>